<svg width="64" height="64" viewBox="0 0 64 64" fill="none" xmlns="http://www.w3.org/2000/svg">
<path d="M32 4C16.5375 4 4 16.5375 4 32C4 47.4625 16.5375 60 32 60C47.4625 60 60 47.4625 60 32C60 16.5375 47.4625 4 32 4ZM32 55.25C19.1625 55.25 8.75 44.8375 8.75 32C8.75 19.1625 19.1625 8.75 32 8.75C44.8375 8.75 55.25 19.1625 55.25 32C55.25 44.8375 44.8375 55.25 32 55.25Z" fill="#C83B34"/>
<path d="M42.9187 39.9124L34.0062 33.4687V18C34.0062 17.725 33.7812 17.5 33.5062 17.5H30.5C30.225 17.5 30 17.725 30 18V35.2124C30 35.3749 30.075 35.5249 30.2062 35.6187L40.5437 43.1562C40.7687 43.3187 41.0812 43.2687 41.2437 43.0499L43.0312 40.6124C43.1937 40.3812 43.1437 40.0687 42.9187 39.9124Z" fill="#C83B34"/>
</svg>
