<svg width="474" height="527" viewBox="0 0 474 527" fill="none" xmlns="http://www.w3.org/2000/svg">
<path d="M622.148 496.084L579.904 347.289V23.3047C579.904 10.9458 569.919 0.960938 557.56 0.960938H65.998C53.6391 0.960938 43.6542 10.9458 43.6542 23.3047V347.289L1.4106 496.084C-3.82622 510.678 6.92671 526.039 22.4277 526.039H601.131C616.632 526.039 627.385 510.678 622.148 496.084ZM93.9277 51.2344H529.631V327.04H93.9277V51.2344ZM253.336 475.766L258.992 449.931H363.938L369.594 475.766H253.336ZM409.743 475.766L396.406 415.228C395.848 412.645 393.543 410.829 390.96 410.829H232.04C229.387 410.829 227.152 412.645 226.594 415.228L213.257 475.766H59.4345L88.9702 371.728H534.588L564.124 475.766H409.743Z" fill="#C83B34" fill-opacity="0.3"/>
</svg>
