<svg width="100" height="100" viewBox="0 0 100 100" fill="none" xmlns="http://www.w3.org/2000/svg">
<path d="M31.25 56.25H56.25V62.5H31.25V56.25Z" fill="#C83B34"/>
<path d="M31.25 40.625H68.75V46.875H31.25V40.625Z" fill="#C83B34"/>
<path d="M31.25 71.875H46.875V78.125H31.25V71.875Z" fill="#C83B34"/>
<path d="M78.125 15.625H68.75V12.5C68.75 10.8424 68.0915 9.25268 66.9194 8.08058C65.7473 6.90848 64.1576 6.25 62.5 6.25H37.5C35.8424 6.25 34.2527 6.90848 33.0806 8.08058C31.9085 9.25268 31.25 10.8424 31.25 12.5V15.625H21.875C20.2174 15.625 18.6277 16.2835 17.4556 17.4556C16.2835 18.6277 15.625 20.2174 15.625 21.875V87.5C15.625 89.1576 16.2835 90.7473 17.4556 91.9194C18.6277 93.0915 20.2174 93.75 21.875 93.75H78.125C79.7826 93.75 81.3723 93.0915 82.5444 91.9194C83.7165 90.7473 84.375 89.1576 84.375 87.5V21.875C84.375 20.2174 83.7165 18.6277 82.5444 17.4556C81.3723 16.2835 79.7826 15.625 78.125 15.625ZM37.5 12.5H62.5V25H37.5V12.5ZM78.125 87.5H21.875V21.875H31.25V31.25H68.75V21.875H78.125V87.5Z" fill="#C83B34"/>
</svg>
