<svg width="100" height="100" viewBox="0 0 100 100" fill="none" xmlns="http://www.w3.org/2000/svg">
<path d="M22.7749 72.7876L47.7655 47.797L52.1874 52.2157L27.1937 77.2064L22.7749 72.7876Z" fill="#C83B34"/>
<path d="M53.1249 93.7498C52.7291 93.7508 52.3368 93.6766 51.9687 93.5311C51.4567 93.327 51.0078 92.9911 50.6676 92.5575C50.3273 92.124 50.1077 91.6081 50.0312 91.0623L46.9062 69.1873L53.1562 68.3123L55.4999 84.7811L65.6249 76.6248V53.1248C65.6226 52.7136 65.7014 52.3059 65.8569 51.9251C66.0124 51.5444 66.2416 51.1981 66.5312 50.9061L79.2499 38.1873C81.8707 35.5844 83.9492 32.4875 85.3653 29.076C86.7814 25.6645 87.507 22.0061 87.4999 18.3123V12.4998H81.6874C77.9937 12.4928 74.3352 13.2183 70.9237 14.6344C67.5122 16.0505 64.4154 18.1291 61.8124 20.7498L49.0937 33.4686C48.8017 33.7582 48.4554 33.9873 48.0746 34.1429C47.6939 34.2984 47.2862 34.3772 46.8749 34.3748H23.3749L15.2187 44.5623L31.6874 46.9061L30.8124 53.1561L8.93743 50.0311C8.39162 49.9545 7.87577 49.735 7.44221 49.3947C7.00864 49.0544 6.67277 48.6055 6.46868 48.0936C6.26206 47.578 6.19657 47.0167 6.27896 46.4675C6.36135 45.9182 6.58864 45.4008 6.93743 44.9686L19.4374 29.3436C19.7253 28.9695 20.0942 28.6656 20.5163 28.4545C20.9385 28.2434 21.403 28.1307 21.8749 28.1248H45.5937L57.3749 16.3123C60.5598 13.1095 64.3489 10.5709 68.5223 8.84355C72.6958 7.11622 77.1707 6.23461 81.6874 6.24983H87.4999C89.1575 6.24983 90.7472 6.90831 91.9193 8.08041C93.0914 9.25251 93.7499 10.8422 93.7499 12.4998V18.3123C93.7651 22.8291 92.8835 27.304 91.1562 31.4774C89.4289 35.6509 86.8902 39.4399 83.6874 42.6248L71.8749 54.4061V78.1248C71.8728 78.5942 71.7649 79.0571 71.5593 79.4791C71.3537 79.901 71.0557 80.2713 70.6874 80.5623L55.0624 93.0623C54.5126 93.5034 53.8298 93.7457 53.1249 93.7498Z" fill="#C83B34"/>
</svg>
