<svg width="52" height="52" viewBox="0 0 52 52" fill="none" xmlns="http://www.w3.org/2000/svg">
<path d="M40.2189 27.7815C39.9715 27.5337 39.6776 27.3371 39.3541 27.2029C39.0306 27.0687 38.6838 26.9997 38.3336 26.9997C37.9834 26.9997 37.6366 27.0687 37.3131 27.2029C36.9896 27.3371 36.6957 27.5337 36.4482 27.7815L32.1976 32.0322C30.2269 31.4455 26.5496 30.1122 24.2189 27.7815C21.8882 25.4509 20.5549 21.7735 19.9682 19.8029L24.2189 15.5522C24.4668 15.3048 24.6634 15.0109 24.7976 14.6874C24.9317 14.3639 25.0008 14.0171 25.0008 13.6669C25.0008 13.3167 24.9317 12.9699 24.7976 12.6464C24.6634 12.3229 24.4668 12.029 24.2189 11.7815L13.5522 1.11488C13.3048 0.867022 13.0109 0.670388 12.6874 0.536226C12.3639 0.402064 12.0171 0.333008 11.6669 0.333008C11.3167 0.333008 10.9699 0.402064 10.6464 0.536226C10.3229 0.670388 10.029 0.867022 9.78157 1.11488L2.54957 8.34688C1.53624 9.36021 0.965572 10.7522 0.986906 12.1735C1.04824 15.9709 2.05357 29.1602 12.4482 39.5549C22.8429 49.9495 36.0322 50.9522 39.8322 51.0162H39.9069C41.3149 51.0162 42.6456 50.4615 43.6536 49.4535L50.8856 42.2215C51.1334 41.9741 51.3301 41.6802 51.4642 41.3567C51.5984 41.0332 51.6674 40.6864 51.6674 40.3362C51.6674 39.986 51.5984 39.6392 51.4642 39.3157C51.3301 38.9922 51.1334 38.6983 50.8856 38.4509L40.2189 27.7815ZM39.8802 45.6802C36.5522 45.6242 25.1656 44.7309 16.2189 35.7815C7.24291 26.8055 6.37357 15.3789 6.32024 12.1175L11.6669 6.77088L18.5629 13.6669L15.1149 17.1149C14.8015 17.4281 14.571 17.8144 14.4444 18.2391C14.3177 18.6637 14.2989 19.1132 14.3896 19.5469C14.4536 19.8535 16.0189 27.1255 20.4456 31.5522C24.8722 35.9789 32.1442 37.5442 32.4509 37.6082C32.8844 37.7014 33.3343 37.6841 33.7593 37.5578C34.1843 37.4315 34.5707 37.2003 34.8829 36.8855L38.3336 33.4375L45.2296 40.3335L39.8802 45.6802Z" fill="#C83B34"/>
</svg>
