<svg width="58" height="44" viewBox="0 0 58 44" fill="none" xmlns="http://www.w3.org/2000/svg">
<path d="M53.889 0.666504H4.11122C3.16823 0.666504 2.26386 1.04111 1.59706 1.7079C0.930266 2.3747 0.555664 3.27907 0.555664 4.22206V39.7776C0.555664 40.7206 0.930266 41.625 1.59706 42.2918C2.26386 42.9586 3.16823 43.3332 4.11122 43.3332H53.889C54.832 43.3332 55.7364 42.9586 56.4032 42.2918C57.07 41.625 57.4445 40.7206 57.4445 39.7776V4.22206C57.4445 3.27907 57.07 2.3747 56.4032 1.7079C55.7364 1.04111 54.832 0.666504 53.889 0.666504ZM51.1512 39.7776H7.06233L19.5068 26.9065L16.9468 24.4354L4.11122 37.7154V6.92428L26.209 28.9154C26.8752 29.5776 27.7763 29.9493 28.7157 29.9493C29.655 29.9493 30.5562 29.5776 31.2223 28.9154L53.889 6.37317V37.4843L40.8046 24.3998L38.2979 26.9065L51.1512 39.7776ZM6.44011 4.22206H51.009L28.7157 26.3909L6.44011 4.22206Z" fill="#C83B34"/>
</svg>
